<?xml version="1.0" encoding="utf-8"?>
<!-- Generator: Adobe Illustrator 19.0.0, SVG Export Plug-In . SVG Version: 6.00 Build 0)  -->
<svg version="1.1" id="Laag_1" xmlns="http://www.w3.org/2000/svg" xmlns:xlink="http://www.w3.org/1999/xlink" x="0px" y="0px"
	 viewBox="0 0 260 150" style="enable-background:new 0 0 260 150;" xml:space="preserve">
<style type="text/css">
	.st0{fill:#FFFFFF;}
	.st1{font-family:'Bahiana-Regular';}
	.st2{font-size:110.2119px;}
	.st3{fill:#39B54A;}
	.st4{font-size:29.0748px;}
	.st5{fill:#ED1C24;}
</style>
<g id="XMLID_1_">
	<text id="XMLID_55_" transform="matrix(1 0 0 1 14.1716 108.6846)" class="st0 st1 st2">MI SCUSI</text>
	<text id="XMLID_54_" transform="matrix(1 0 0 1 103.3684 26.1782)" class="st3 st1 st4">italian</text>
	<text id="XMLID_53_" transform="matrix(1 0 0 1 33.1697 141.4121)" class="st5 st1 st4">Restaurant - cafe - bar</text>
	<g id="XMLID_38_">
		<g id="XMLID_46_">
			<g id="XMLID_18_">
				<path id="XMLID_22_" class="st3" d="M164.5,18.1c24.5,0,49,0,73.6,0c-0.7,0-2.8-2.3-4.2-2.3c-24.5,0-49,0-73.6,0
					C160.9,15.8,163.1,18.1,164.5,18.1L164.5,18.1z"/>
			</g>
		</g>
		<g id="XMLID_39_">
			<g id="XMLID_14_">
				<path id="XMLID_23_" class="st3" d="M26.2,18.1c24.5,0,49,0,73.6,0c-0.7,0-2.8-2.3-4.2-2.3c-24.5,0-49,0-73.6,0
					C22.6,15.8,24.8,18.1,26.2,18.1L26.2,18.1z"/>
			</g>
		</g>
	</g>
</g>
</svg>
